<svg xmlns="http://www.w3.org/2000/svg" xmlns:xlink="http://www.w3.org/1999/xlink" width="781" height="586" version="1.1" viewBox="0 0 781 586"><title>Group</title><desc>Created with Sketch.</desc><g id="Page-1" fill="none" fill-rule="evenodd" stroke="none" stroke-width="1"><g id="Group" transform="translate(390.794000, 293.206000) scale(1, -1) translate(-390.794000, -293.206000) translate(0.294000, 0.706000)"><path id="Shape" fill="#000" d="M345.744,253.722 L701.778,512.442 L696.486,458.346 C698.25,462.168 700.308,465.99 702.66,469.518 L780.57,585.06 L646.8,546.546 C642.684,545.37 638.274,544.488 634.158,544.194 L687.372,532.434 L331.338,273.714 L345.744,253.722 Z"/><path id="Shape" fill="#F00000" d="M67.6494,374.6148 C67.6494,444.7926 128.1252,509.796 198.9498,509.796 C265.8936,509.796 300.174,478.7496 337.365,438.3246 C374.556,478.7496 408.8364,509.796 475.7802,509.796 C546.6048,509.796 607.0806,444.7926 607.0806,374.6148 C607.0806,304.437 574.0938,248.4888 510.0606,181.545 C450.2316,119.4522 377.4666,49.2744 337.365,8.8494 C297.2634,49.2744 224.4984,119.4522 164.6694,181.545 C100.6362,248.4888 67.6494,304.437 67.6494,374.6148 L67.6494,374.6148 Z"/><path id="Shape" fill="#000" d="M331.338,273.714 L94.08,101.43 L59.682,119.364 L47.628,110.838 L82.026,92.904 L70.266,84.084 L35.868,102.018 L23.814,93.492 L58.212,75.558 L46.452,67.032 L12.054,84.672 L0,76.146 L34.692,58.212 L27.636,53.214 L42.042,33.222 L49.098,38.22 L55.566,0 L67.326,8.526 L60.858,47.04 L72.912,55.566 L79.086,17.346 L91.14,25.872 L84.672,64.092 L96.726,72.912 L102.9,34.692 L114.954,43.218 L108.486,81.438 L345.744,253.722 L331.338,273.714 Z"/></g></g></svg>